<svg width="32" height="32" viewBox="0 0 32 32" fill="none" xmlns="http://www.w3.org/2000/svg">
<path d="M10.6668 5.33366H9.60042C8.10695 5.33366 7.35966 5.33366 6.78923 5.62431C6.28746 5.87997 5.87981 6.28762 5.62415 6.78939C5.3335 7.35982 5.3335 8.10711 5.3335 9.60059V10.667M10.6668 5.33366H21.3335M10.6668 5.33366V2.66699M21.3335 5.33366H22.4004C23.8939 5.33366 24.6396 5.33366 25.21 5.62431C25.7118 5.87997 26.1208 6.28762 26.3765 6.78939C26.6668 7.35926 26.6668 8.10565 26.6668 9.59621V10.667M21.3335 5.33366V2.66699M5.3335 10.667V22.4006C5.3335 23.8941 5.3335 24.6404 5.62415 25.2108C5.87981 25.7126 6.28746 26.121 6.78923 26.3766C7.3591 26.667 8.10549 26.667 9.59604 26.667H22.4043C23.8948 26.667 24.6401 26.667 25.21 26.3766C25.7118 26.121 26.1208 25.7126 26.3765 25.2108C26.6668 24.641 26.6668 23.8956 26.6668 22.4051V10.667M5.3335 10.667H26.6668M21.3335 21.3337H21.3362L21.3361 21.3363L21.3335 21.3363V21.3337ZM16.0002 21.3337H16.0028L16.0028 21.3363L16.0002 21.3363V21.3337ZM10.6668 21.3337H10.6695L10.6694 21.3363L10.6668 21.3363V21.3337ZM21.3361 16.0003V16.003L21.3335 16.0029V16.0003H21.3361ZM16.0002 16.0003H16.0028L16.0028 16.003L16.0002 16.0029V16.0003ZM10.6668 16.0003H10.6695L10.6694 16.003L10.6668 16.0029V16.0003Z" stroke="#626262" stroke-width="1.5" stroke-linecap="round" stroke-linejoin="round"/>
</svg>
