<svg width="24" height="22" viewBox="0 0 24 22" fill="none" xmlns="http://www.w3.org/2000/svg">
<path d="M1 5.40004C1 3.86002 1 3.09002 1.2992 2.50151C1.56291 1.98379 1.98379 1.56291 2.50151 1.2992C3.09002 1 3.86002 1 5.40004 1C6.94005 1 7.71006 1 8.29856 1.2992C8.81628 1.56291 9.23717 1.98379 9.50087 2.50151C9.80008 3.09002 9.80008 3.86002 9.80008 5.40004M1 5.40004V16.4001C1 17.9401 1 18.7102 1.2992 19.2987C1.56309 19.816 1.98397 20.2364 2.50151 20.4999C3.09002 20.8002 3.86002 20.8002 5.40004 20.8002C6.94005 20.8002 7.71006 20.8002 8.29856 20.4999C8.81611 20.2364 9.23698 19.816 9.50087 19.2987C9.80008 18.7102 9.80008 17.9401 9.80008 16.4001V5.40004M1 5.40004H9.80008M5.40004 16.4001H5.40994M18.3592 16.0646L18.3692 16.0624M12.0001 6.50005L19.1502 4.30003M11.394 6.79485C11.0035 5.33184 10.8077 4.60033 10.943 3.96563C11.0607 3.4075 11.3517 2.90084 11.7746 2.51801C12.2553 2.08351 12.9846 1.88771 14.441 1.495C15.8974 1.1034 16.6267 0.907599 17.2581 1.0429C17.815 1.16167 18.3196 1.45445 18.6992 1.87891C19.1326 2.36071 19.3284 3.09222 19.7189 4.55523L22.5063 15.0053C22.8968 16.4683 23.0926 17.1998 22.9573 17.8345C22.8396 18.3927 22.5485 18.8994 22.1257 19.2822C21.645 19.7167 20.9157 19.9125 19.4593 20.3052C18.0028 20.6968 17.2746 20.8926 16.6421 20.7573C16.0855 20.6378 15.5811 20.3451 15.2011 19.9213C14.7677 19.4395 14.5719 18.708 14.1814 17.2449L11.394 6.79485Z" stroke="#333333" stroke-width="1.3" stroke-linecap="round" stroke-linejoin="round"/>
</svg>
