<svg width="22" height="22" viewBox="0 0 22 22" fill="none" xmlns="http://www.w3.org/2000/svg">
<path d="M19.0041 10.002V9.00182C19.0041 5.22996 19.0041 3.34353 17.7639 2.17227C16.5216 1 14.5251 1 10.5322 1H9.47198C5.47802 1 3.48056 1 2.24028 2.17227C1 3.34453 1 5.22996 1 9.00182V13.0027C1 16.7746 1 18.661 2.24028 19.8323C3.48056 21.0035 5.47902 21.0045 9.47198 21.0045H10.0021M6.00114 6.00114H14.003M6.00114 11.0023H14.003M19.8643 13.4428L20.5595 14.135C20.699 14.2741 20.8099 14.4395 20.8855 14.6214C20.9611 14.8034 21 14.9986 21 15.1957C21 15.3929 20.9611 15.588 20.8855 15.7701C20.8099 15.952 20.699 16.1173 20.5595 16.2565L16.9207 19.9533C16.6343 20.239 16.2681 20.4311 15.8704 20.5044L13.6159 20.9925C13.5341 21.0107 13.449 21.008 13.3686 20.9846C13.288 20.9613 13.2147 20.9181 13.1553 20.8591C13.0958 20.8 13.0522 20.727 13.0283 20.6467C13.0045 20.5663 13.0012 20.4813 13.0188 20.3994L13.4989 18.1639C13.5729 17.7668 13.766 17.4017 14.053 17.1167L17.7369 13.4418C18.0193 13.1605 18.4018 13.0024 18.8006 13.0024C19.1993 13.0024 19.5818 13.1615 19.8643 13.4428Z" stroke="#333333" stroke-width="1.5" stroke-linecap="round" stroke-linejoin="round"/>
</svg>
