<svg width="20" height="20" viewBox="0 0 20 20" fill="none" xmlns="http://www.w3.org/2000/svg">
<path d="M8.33366 4.16667H11.667C11.667 3.72464 11.4914 3.30072 11.1788 2.98816C10.8662 2.67559 10.4423 2.5 10.0003 2.5C9.55833 2.5 9.13441 2.67559 8.82183 2.98816C8.50924 3.30072 8.33366 3.72464 8.33366 4.16667ZM7.08366 4.16667C7.08366 3.78364 7.1591 3.40438 7.30568 3.05051C7.45225 2.69664 7.66709 2.37511 7.93793 2.10428C8.20877 1.83343 8.53032 1.61859 8.88416 1.47202C9.23799 1.32544 9.61733 1.25 10.0003 1.25C10.3833 1.25 10.7627 1.32544 11.1165 1.47202C11.4703 1.61859 11.7919 1.83343 12.0627 2.10428C12.3336 2.37511 12.5484 2.69664 12.695 3.05051C12.8416 3.40438 12.917 3.78364 12.917 4.16667H17.7087C17.8744 4.16667 18.0334 4.23252 18.1506 4.34973C18.2678 4.46693 18.3337 4.62591 18.3337 4.79167C18.3337 4.95743 18.2678 5.1164 18.1506 5.23361C18.0334 5.35082 17.8744 5.41667 17.7087 5.41667H16.6087L15.6337 15.5092C15.5589 16.2825 15.1987 17.0002 14.6234 17.5223C14.0481 18.0445 13.2989 18.3337 12.522 18.3333H7.47866C6.70188 18.3334 5.95291 18.0442 5.37778 17.5221C4.80266 16.9999 4.4426 16.2823 4.36783 15.5092L3.39199 5.41667H2.29199C2.12623 5.41667 1.96726 5.35082 1.85005 5.23361C1.73284 5.1164 1.66699 4.95743 1.66699 4.79167C1.66699 4.62591 1.73284 4.46693 1.85005 4.34973C1.96726 4.23252 2.12623 4.16667 2.29199 4.16667H7.08366ZM8.75033 8.125C8.75033 7.95924 8.68449 7.80027 8.56724 7.68306C8.45008 7.56585 8.29108 7.5 8.12533 7.5C7.95957 7.5 7.80059 7.56585 7.68338 7.68306C7.56618 7.80027 7.50033 7.95924 7.50033 8.125V14.375C7.50033 14.5408 7.56618 14.6998 7.68338 14.8169C7.80059 14.9342 7.95957 15 8.12533 15C8.29108 15 8.45008 14.9342 8.56724 14.8169C8.68449 14.6998 8.75033 14.5408 8.75033 14.375V8.125ZM11.8753 7.5C12.0411 7.5 12.2001 7.56585 12.3172 7.68306C12.4345 7.80027 12.5003 7.95924 12.5003 8.125V14.375C12.5003 14.5408 12.4345 14.6998 12.3172 14.8169C12.2001 14.9342 12.0411 15 11.8753 15C11.7096 15 11.5506 14.9342 11.4334 14.8169C11.3162 14.6998 11.2503 14.5408 11.2503 14.375V8.125C11.2503 7.95924 11.3162 7.80027 11.4334 7.68306C11.5506 7.56585 11.7096 7.5 11.8753 7.5ZM5.61199 15.3892C5.65694 15.853 5.87303 16.2836 6.21813 16.5968C6.56323 16.91 7.01262 17.0834 7.47866 17.0833H12.522C12.9881 17.0834 13.4374 16.91 13.7825 16.5968C14.1277 16.2836 14.3437 15.853 14.3887 15.3892L15.3537 5.41667H4.64699L5.61199 15.3892Z" fill="#333333"/>
</svg>
