<svg width="22" height="22" viewBox="0 0 22 22" fill="none" xmlns="http://www.w3.org/2000/svg">
<path d="M9.16732 4.58333H12.834C12.834 4.09711 12.6408 3.63079 12.297 3.28697C11.9532 2.94315 11.4869 2.75 11.0007 2.75C10.5145 2.75 10.0481 2.94315 9.7043 3.28697C9.36046 3.63079 9.16732 4.09711 9.16732 4.58333ZM7.79232 4.58333C7.79232 4.16201 7.8753 3.74481 8.03654 3.35556C8.19777 2.96631 8.43409 2.61262 8.73202 2.3147C9.02994 2.01678 9.38365 1.78045 9.77287 1.61922C10.1621 1.45799 10.5794 1.375 11.0007 1.375C11.422 1.375 11.8392 1.45799 12.2284 1.61922C12.6177 1.78045 12.9714 2.01678 13.2693 2.3147C13.5672 2.61262 13.8035 2.96631 13.9648 3.35556C14.126 3.74481 14.209 4.16201 14.209 4.58333H19.4798C19.6621 4.58333 19.837 4.65577 19.9659 4.7847C20.0949 4.91363 20.1673 5.0885 20.1673 5.27083C20.1673 5.45317 20.0949 5.62804 19.9659 5.75697C19.837 5.8859 19.6621 5.95833 19.4798 5.95833H18.2698L17.1973 17.0601C17.1151 17.9107 16.7188 18.7002 16.086 19.2746C15.4532 19.8489 14.6291 20.167 13.7745 20.1667H8.22682C7.37236 20.1668 6.54849 19.8486 5.91586 19.2743C5.28322 18.6999 4.88715 17.9106 4.8049 17.0601L3.73148 5.95833H2.52148C2.33915 5.95833 2.16428 5.8859 2.03535 5.75697C1.90642 5.62804 1.83398 5.45317 1.83398 5.27083C1.83398 5.0885 1.90642 4.91363 2.03535 4.7847C2.16428 4.65577 2.33915 4.58333 2.52148 4.58333H7.79232ZM9.62565 8.9375C9.62565 8.75517 9.55323 8.58029 9.42426 8.45136C9.29538 8.32243 9.12049 8.25 8.93815 8.25C8.75582 8.25 8.58095 8.32243 8.45202 8.45136C8.32309 8.58029 8.25065 8.75517 8.25065 8.9375V15.8125C8.25065 15.9948 8.32309 16.1697 8.45202 16.2986C8.58095 16.4276 8.75582 16.5 8.93815 16.5C9.12049 16.5 9.29538 16.4276 9.42426 16.2986C9.55323 16.1697 9.62565 15.9948 9.62565 15.8125V8.9375ZM13.0632 8.25C13.2455 8.25 13.4204 8.32243 13.5493 8.45136C13.6782 8.58029 13.7507 8.75517 13.7507 8.9375V15.8125C13.7507 15.9948 13.6782 16.1697 13.5493 16.2986C13.4204 16.4276 13.2455 16.5 13.0632 16.5C12.8808 16.5 12.7059 16.4276 12.577 16.2986C12.4481 16.1697 12.3757 15.9948 12.3757 15.8125V8.9375C12.3757 8.75517 12.4481 8.58029 12.577 8.45136C12.7059 8.32243 12.8808 8.25 13.0632 8.25ZM6.17348 16.9281C6.22293 17.4383 6.46062 17.9119 6.84024 18.2564C7.21985 18.601 7.71417 18.7918 8.22682 18.7917H13.7745C14.2872 18.7918 14.7814 18.601 15.161 18.2564C15.5407 17.9119 15.7784 17.4383 15.8278 16.9281L16.8893 5.95833H5.11198L6.17348 16.9281Z" fill="#626262"/>
</svg>
