<svg width="22" height="22" viewBox="0 0 22 22" fill="none" xmlns="http://www.w3.org/2000/svg">
<rect width="22" height="22" rx="7" fill="#32394E"/>
<path d="M5.66669 7.66699C5.66669 7.04574 5.66669 6.73511 5.76818 6.49008C5.90351 6.16338 6.16307 5.90381 6.48978 5.76849C6.7348 5.66699 7.04543 5.66699 7.66669 5.66699C8.28794 5.66699 8.59857 5.66699 8.8436 5.76849C9.1703 5.90381 9.42987 6.16338 9.56519 6.49008C9.66669 6.73511 9.66669 7.04574 9.66669 7.66699C9.66669 8.28825 9.66669 8.59888 9.56519 8.8439C9.42987 9.17061 9.1703 9.43017 8.8436 9.5655C8.59857 9.66699 8.28794 9.66699 7.66669 9.66699C7.04543 9.66699 6.7348 9.66699 6.48978 9.5655C6.16307 9.43017 5.90351 9.17061 5.76818 8.8439C5.66669 8.59888 5.66669 8.28825 5.66669 7.66699Z" fill="white"/>
<path d="M5.66669 14.3337C5.66669 13.7124 5.66669 13.4018 5.76818 13.1567C5.90351 12.83 6.16307 12.5705 6.48978 12.4352C6.7348 12.3337 7.04543 12.3337 7.66669 12.3337C8.28794 12.3337 8.59857 12.3337 8.8436 12.4352C9.1703 12.5705 9.42987 12.83 9.56519 13.1567C9.66669 13.4018 9.66669 13.7124 9.66669 14.3337C9.66669 14.9549 9.66669 15.2655 9.56519 15.5106C9.42987 15.8373 9.1703 16.0968 8.8436 16.2322C8.59857 16.3337 8.28794 16.3337 7.66669 16.3337C7.04543 16.3337 6.7348 16.3337 6.48978 16.2322C6.16307 16.0968 5.90351 15.8373 5.76818 15.5106C5.66669 15.2655 5.66669 14.9549 5.66669 14.3337Z" fill="white"/>
<path d="M12.3334 14.3337C12.3334 13.7124 12.3334 13.4018 12.4348 13.1567C12.5702 12.83 12.8297 12.5705 13.1564 12.4352C13.4015 12.3337 13.7121 12.3337 14.3334 12.3337C14.9546 12.3337 15.2652 12.3337 15.5103 12.4352C15.837 12.5705 16.0965 12.83 16.2319 13.1567C16.3334 13.4018 16.3334 13.7124 16.3334 14.3337C16.3334 14.9549 16.3334 15.2655 16.2319 15.5106C16.0965 15.8373 15.837 16.0968 15.5103 16.2322C15.2652 16.3337 14.9546 16.3337 14.3334 16.3337C13.7121 16.3337 13.4015 16.3337 13.1564 16.2322C12.8297 16.0968 12.5702 15.8373 12.4348 15.5106C12.3334 15.2655 12.3334 14.9549 12.3334 14.3337Z" fill="white"/>
<path d="M14.8334 5.66699C14.8334 5.39085 14.6095 5.16699 14.3334 5.16699C14.0572 5.16699 13.8334 5.39085 13.8334 5.66699V7.16699H12.3334C12.0572 7.16699 11.8334 7.39085 11.8334 7.66699C11.8334 7.94313 12.0572 8.16699 12.3334 8.16699H13.8334V9.66699C13.8334 9.94313 14.0572 10.167 14.3334 10.167C14.6095 10.167 14.8334 9.94313 14.8334 9.66699V8.16699H16.3334C16.6095 8.16699 16.8334 7.94313 16.8334 7.66699C16.8334 7.39085 16.6095 7.16699 16.3334 7.16699H14.8334V5.66699Z" fill="white"/>
</svg>
