<svg width="44" height="44" viewBox="0 0 44 44" fill="none" xmlns="http://www.w3.org/2000/svg">
<g filter="url(#filter0_d_194_8930)">
<circle cx="22" cy="22" r="20" fill="white"/>
<circle cx="22" cy="22" r="19.75" stroke="#333333" stroke-width="0.5"/>
</g>
<g clip-path="url(#clip0_194_8930)">
<path d="M31.5471 26.4673C30.9602 25.4787 30.0881 22.6906 30.0881 19.0642C30.0881 16.9645 29.236 14.9509 27.7192 13.4662C26.2024 11.9815 24.1452 11.1475 22.0001 11.1475C19.855 11.1475 17.7977 11.9815 16.2809 13.4662C14.7641 14.9509 13.912 16.9645 13.912 19.0642C13.912 22.6916 13.0389 25.4787 12.452 26.4673C12.3232 26.6831 12.2549 26.9284 12.2539 27.1783C12.2529 27.4283 12.3193 27.6741 12.4464 27.8909C12.5734 28.1077 12.7566 28.2879 12.9776 28.4132C13.1985 28.5386 13.4493 28.6047 13.7046 28.6048H18.1095C18.2606 29.5076 18.7347 30.3284 19.4469 30.9206C20.1592 31.5129 21.0634 31.8381 21.998 31.8381C22.9326 31.8381 23.8368 31.5129 24.5491 30.9206C25.2613 30.3284 25.7354 29.5076 25.8865 28.6048H30.2955C30.5507 28.6043 30.8012 28.5379 31.0219 28.4125C31.2425 28.287 31.4254 28.1068 31.5523 27.89C31.6791 27.6733 31.7452 27.4276 31.7442 27.1778C31.7431 26.9281 31.6748 26.683 31.5461 26.4673H31.5471ZM22.0001 30.6348C21.3934 30.6346 20.8045 30.4341 20.3286 30.0657C19.8527 29.6973 19.5177 29.1826 19.3777 28.6048H24.6225C24.4825 29.1826 24.1475 29.6973 23.6716 30.0657C23.1957 30.4341 22.6068 30.6346 22.0001 30.6348ZM30.4728 27.2854C30.4558 27.3165 30.4303 27.3424 30.3992 27.3603C30.3681 27.3782 30.3326 27.3873 30.2966 27.3869H13.7046C13.6686 27.3873 13.6331 27.3782 13.602 27.3603C13.5709 27.3424 13.5454 27.3165 13.5283 27.2854C13.5101 27.2545 13.5006 27.2195 13.5006 27.1839C13.5006 27.1482 13.5101 27.1132 13.5283 27.0824C14.3133 25.7629 15.1563 22.6866 15.1563 19.0642C15.1563 17.2876 15.8774 15.5837 17.1608 14.3274C18.4443 13.0712 20.185 12.3654 22.0001 12.3654C23.8152 12.3654 25.5559 13.0712 26.8393 14.3274C28.1228 15.5837 28.8438 17.2876 28.8438 19.0642C28.8438 22.6856 29.6879 25.7579 30.4728 27.0824C30.4911 27.1132 30.5006 27.1482 30.5006 27.1839C30.5006 27.2195 30.4911 27.2545 30.4728 27.2854Z" fill="#333333" stroke="#333333" stroke-width="0.5"/>
</g>
<defs>
<filter id="filter0_d_194_8930" x="0" y="0" width="44" height="44" filterUnits="userSpaceOnUse" color-interpolation-filters="sRGB">
<feFlood flood-opacity="0" result="BackgroundImageFix"/>
<feColorMatrix in="SourceAlpha" type="matrix" values="0 0 0 0 0 0 0 0 0 0 0 0 0 0 0 0 0 0 127 0" result="hardAlpha"/>
<feOffset/>
<feGaussianBlur stdDeviation="1"/>
<feComposite in2="hardAlpha" operator="out"/>
<feColorMatrix type="matrix" values="0 0 0 0 0.196078 0 0 0 0 0.223529 0 0 0 0 0.305882 0 0 0 0.5 0"/>
<feBlend mode="normal" in2="BackgroundImageFix" result="effect1_dropShadow_194_8930"/>
<feBlend mode="normal" in="SourceGraphic" in2="effect1_dropShadow_194_8930" result="shape"/>
</filter>
<clipPath id="clip0_194_8930">
<rect width="20" height="21" fill="white" transform="translate(12 11)"/>
</clipPath>
</defs>
</svg>
