<svg width="22" height="17" viewBox="0 0 22 17" fill="none" xmlns="http://www.w3.org/2000/svg">
<path d="M4.89245 16.5905C3.57161 16.5905 2.3451 16.059 1.43309 15.0789C0.97875 14.599 0.618343 14.0293 0.372451 13.4023C0.12656 12.7753 0 12.1032 0 11.4245C0 10.7458 0.12656 10.0737 0.372451 9.44672C0.618343 8.81969 0.97875 8.24997 1.43309 7.7701L5.78874 3.16886C6.708 2.20319 7.9517 1.66113 9.2481 1.66113C10.5445 1.66113 11.7882 2.20319 12.7075 3.16886C13.1635 3.64773 13.5254 4.21713 13.7724 4.84429C14.0193 5.47145 14.1465 6.14401 14.1465 6.82327C14.1465 7.50253 14.0193 8.17509 13.7724 8.80225C13.5254 9.42942 13.1635 9.99881 12.7075 10.4777C12.393 10.8099 11.9055 10.8099 11.591 10.4777C11.2765 10.1455 11.2765 9.63052 11.591 9.2983C12.8804 7.93621 12.8804 5.71034 11.591 4.33163C10.2859 2.95292 8.17885 2.95292 6.88945 4.33163L2.5338 8.93286C1.2444 10.295 1.22867 12.5208 2.5338 13.8995C3.16277 14.564 3.98044 14.946 4.89245 14.9294C5.77302 14.9294 6.60641 14.564 7.23538 13.8995C7.54987 13.5673 8.03733 13.5673 8.35182 13.8995C8.6663 14.2318 8.6663 14.7467 8.35182 15.0789C7.42408 16.059 6.19758 16.5905 4.89245 16.5905Z" fill="#6A6A6A"/>
<path d="M12.785 14.8795C11.4799 14.8795 10.2377 14.348 9.32567 13.368C8.87133 12.8881 8.51092 12.3184 8.26503 11.6913C8.01914 11.0643 7.89258 10.3922 7.89258 9.71354C7.89258 9.03484 8.01914 8.36278 8.26503 7.73575C8.51092 7.10872 8.87133 6.539 9.32567 6.05913C9.64016 5.72691 10.1276 5.74352 10.4421 6.05913C10.7566 6.39135 10.7409 6.90629 10.4421 7.23851C9.1527 8.60061 9.13698 10.8265 10.4421 12.2052C11.0711 12.8696 11.9359 13.2517 12.8008 13.2351C13.6813 13.2351 14.5147 12.8696 15.1437 12.2052L19.4679 7.63717C20.0969 6.97273 20.4428 6.09235 20.4428 5.16214C20.4428 4.23193 20.0969 3.33493 19.4679 2.68711C18.1628 1.3084 16.0557 1.3084 14.7663 2.68711C14.4518 3.01933 13.9644 3.00271 13.6499 2.68711C13.3354 2.35489 13.3511 1.83995 13.6499 1.50773C14.5691 0.542056 15.8128 0 17.1092 0C18.4056 0 19.6493 0.542056 20.5686 1.50773C21.4963 2.48777 21.9995 3.78343 21.9995 5.16214C21.9995 6.54085 21.4963 7.8365 20.5686 8.81655L16.2444 13.3846C15.3167 14.3646 14.0902 14.8962 12.785 14.8962V14.8795Z" fill="#6A6A6A"/>
</svg>
