<svg width="22" height="19" viewBox="0 0 22 19" fill="none" xmlns="http://www.w3.org/2000/svg">
<path d="M4.89245 18.3336C3.57161 18.3336 2.3451 17.7462 1.43309 16.6632C0.97875 16.1329 0.618343 15.5034 0.372451 14.8105C0.12656 14.1176 0 13.3749 0 12.6249C0 11.8749 0.12656 11.1323 0.372451 10.4394C0.618343 9.74648 0.97875 9.11692 1.43309 8.58663L5.78874 3.50205C6.708 2.43494 7.9517 1.83594 9.2481 1.83594C10.5445 1.83594 11.7882 2.43494 12.7075 3.50205C13.1635 4.03122 13.5254 4.66043 13.7724 5.35348C14.0193 6.04652 14.1465 6.78973 14.1465 7.54035C14.1465 8.29096 14.0193 9.03417 13.7724 9.72722C13.5254 10.4203 13.1635 11.0495 12.7075 11.5786C12.393 11.9458 11.9055 11.9458 11.591 11.5786C11.2765 11.2115 11.2765 10.6425 11.591 10.2754C12.8804 8.77019 12.8804 6.3105 11.591 4.78696C10.2859 3.26342 8.17885 3.26342 6.88945 4.78696L2.5338 9.87154C1.2444 11.3767 1.22867 13.8364 2.5338 15.36C3.16277 16.0942 3.98044 16.5164 4.89245 16.498C5.77302 16.498 6.60641 16.0942 7.23538 15.36C7.54987 14.9928 8.03733 14.9928 8.35182 15.36C8.6663 15.7271 8.6663 16.2961 8.35182 16.6632C7.42408 17.7462 6.19758 18.3336 4.89245 18.3336Z" fill="#333333"/>
<path d="M12.785 16.4426C11.4799 16.4426 10.2377 15.8552 9.32567 14.7722C8.87133 14.2419 8.51092 13.6124 8.26503 12.9195C8.01914 12.2266 7.89258 11.4839 7.89258 10.7339C7.89258 9.98393 8.01914 9.24127 8.26503 8.54838C8.51092 7.85548 8.87133 7.22591 9.32567 6.69563C9.64016 6.32851 10.1276 6.34687 10.4421 6.69563C10.7566 7.06275 10.7409 7.63178 10.4421 7.9989C9.1527 9.50408 9.13698 11.9638 10.4421 13.4873C11.0711 14.2215 11.9359 14.6437 12.8008 14.6254C13.6813 14.6254 14.5147 14.2215 15.1437 13.4873L19.4679 8.43944C20.0969 7.7052 20.4428 6.73234 20.4428 5.70441C20.4428 4.67648 20.0969 3.68526 19.4679 2.96938C18.1628 1.44584 16.0557 1.44584 14.7663 2.96938C14.4518 3.3365 13.9644 3.31814 13.6499 2.96938C13.3354 2.60226 13.3511 2.03323 13.6499 1.66611C14.5691 0.598998 15.8128 0 17.1092 0C18.4056 0 19.6493 0.598998 20.5686 1.66611C21.4963 2.74911 21.9995 4.18087 21.9995 5.70441C21.9995 7.22795 21.4963 8.65971 20.5686 9.74271L16.2444 14.7906C15.3167 15.8736 14.0902 16.461 12.785 16.461V16.4426Z" fill="#333333"/>
</svg>
