<svg width="24" height="24" viewBox="0 0 24 24" fill="none" xmlns="http://www.w3.org/2000/svg">
<circle cx="12" cy="12" r="11.5" stroke="white"/>
<path d="M15.1759 11.9994C15.1759 12.8418 14.8412 13.6498 14.2455 14.2455C13.6498 14.8412 12.8419 15.1758 11.9994 15.1758C11.157 15.1758 10.349 14.8412 9.75332 14.2455C9.15762 13.6498 8.82296 12.8418 8.82296 11.9994C8.82296 11.1569 9.15762 10.349 9.75332 9.75327C10.349 9.15757 11.157 8.8229 11.9994 8.8229C12.8419 8.8229 13.6498 9.15757 14.2455 9.75327C14.8412 10.349 15.1759 11.1569 15.1759 11.9994ZM15.1759 11.9994C15.1759 13.169 15.8867 14.117 16.7641 14.117C17.6415 14.117 18.3524 13.169 18.3524 11.9994C18.3524 10.5296 17.8427 9.10528 16.9103 7.96913C15.9779 6.83298 14.6803 6.05528 13.2388 5.76855C11.7972 5.48183 10.3009 5.7038 9.00463 6.39666C7.7084 7.08952 6.69251 8.2104 6.13006 9.56831C5.5676 10.9262 5.49339 12.4371 5.92005 13.8436C6.34672 15.2501 7.24787 16.4652 8.46996 17.2817C9.69205 18.0983 11.1595 18.4658 12.6222 18.3218C14.0849 18.1777 15.4524 17.5309 16.4917 16.4916M15.1759 11.9994V9.35232" stroke="white" stroke-linecap="round"/>
</svg>
