<svg width="26" height="26" viewBox="0 0 26 26" fill="none" xmlns="http://www.w3.org/2000/svg">
<path d="M10.7501 17.8747H14.6252V16.7913H10.7501V17.8747ZM10.7501 13.5413H17.8752V12.458H10.7501V13.5413ZM8.12521 9.20801H17.8752V8.12467H8.12521V9.20801ZM7.82297 22.7497C6.54969 22.7497 5.46419 22.3041 4.56646 21.4128C3.6673 20.5223 3.21771 19.4404 3.21771 18.1672C3.21771 17.1799 3.49469 16.3009 4.04863 15.5303C4.60185 14.759 5.3118 14.2076 6.17846 13.8761H3.25021V12.7928H8.16747V17.7089H7.08413V14.707C6.27669 14.8796 5.61116 15.2852 5.08755 15.9236C4.56394 16.5628 4.30213 17.3038 4.30213 18.1466C4.30213 19.1303 4.6441 19.963 5.32806 20.6448C6.01272 21.3265 6.84436 21.6674 7.82297 21.6674V22.7497ZM10.7501 21.6663V20.583H19.9173C20.0834 20.583 20.2361 20.5137 20.3755 20.375C20.515 20.2363 20.5843 20.0833 20.5835 19.9157V6.08367C20.5835 5.91684 20.5142 5.76373 20.3755 5.62434C20.2369 5.48495 20.0838 5.41562 19.9162 5.41634H6.08421C5.91738 5.41634 5.76427 5.48567 5.62488 5.62434C5.4855 5.76301 5.41616 5.91612 5.41688 6.08367V10.2079H4.33355V6.08367C4.33355 5.58462 4.50075 5.16826 4.83513 4.83459C5.16952 4.50092 5.58588 4.33373 6.08421 4.33301H19.9173C20.4156 4.33301 20.8319 4.5002 21.1664 4.83459C21.5008 5.16898 21.6676 5.58534 21.6669 6.08367V19.9168C21.6669 20.4151 21.5 20.8314 21.1664 21.1658C20.8327 21.5003 20.4159 21.6671 19.9162 21.6663H10.7501Z" fill="white" stroke="white" stroke-width="0.6"/>
</svg>
