<svg width="22" height="22" viewBox="0 0 22 22" fill="none" xmlns="http://www.w3.org/2000/svg">
<circle cx="11" cy="11" r="10.25" fill="white" stroke="#626262" stroke-width="1.5"/>
<path fill-rule="evenodd" clip-rule="evenodd" d="M11.7333 8.06634C11.7333 7.66133 11.4049 7.33301 10.9999 7.33301C10.5949 7.33301 10.2666 7.66133 10.2666 8.06634V10.2663H8.06659C7.66158 10.2663 7.33325 10.5947 7.33325 10.9997C7.33325 11.4047 7.66158 11.733 8.06659 11.733H10.2666V13.933C10.2666 14.338 10.5949 14.6663 10.9999 14.6663C11.4049 14.6663 11.7333 14.338 11.7333 13.933V11.733H13.9333C14.3383 11.733 14.6666 11.4047 14.6666 10.9997C14.6666 10.5947 14.3383 10.2663 13.9333 10.2663H11.7333V8.06634Z" fill="#626262"/>
</svg>
