<svg width="24" height="24" viewBox="0 0 24 24" fill="none" xmlns="http://www.w3.org/2000/svg">
<g clip-path="url(#clip0_194_8913)">
<mask id="mask0_194_8913" style="mask-type:luminance" maskUnits="userSpaceOnUse" x="0" y="0" width="24" height="24">
<path d="M24 0H0V24H24V0Z" fill="white"/>
</mask>
<g mask="url(#mask0_194_8913)">
<path d="M10.8864 3.36667C12.3305 3.36535 13.7425 3.79237 14.9439 4.59369C16.1452 5.39503 17.0819 6.53467 17.6355 7.86847C18.189 9.20227 18.3345 10.6703 18.0536 12.0867C17.7727 13.5033 17.0779 14.8046 16.0573 15.8262C15.0367 16.8478 13.7359 17.5437 12.3197 17.8259C10.9034 18.1081 9.43527 17.9639 8.10101 17.4116C6.76674 16.8593 5.62623 15.9237 4.8238 14.723C4.02137 13.5224 3.59306 12.1107 3.59306 10.6667C3.60182 8.73447 4.37282 6.88373 5.7385 5.51681C7.10421 4.14988 8.95421 3.37719 10.8864 3.36667ZM10.8864 2C9.17227 2 7.49667 2.50829 6.07145 3.4606C4.64623 4.4129 3.5354 5.76645 2.87944 7.35007C2.22348 8.93373 2.05185 10.6763 2.38626 12.3575C2.72066 14.0386 3.54608 15.5829 4.75814 16.7949C5.97019 18.007 7.51447 18.8324 9.19561 19.1668C10.8768 19.5012 12.6193 19.3296 14.203 18.6736C15.7866 18.0177 17.1401 16.9069 18.0925 15.4816C19.0447 14.0564 19.5531 12.3808 19.5531 10.6667C19.5531 8.36813 18.6399 6.16372 17.0147 4.53841C15.3893 2.91309 13.1849 2 10.8864 2Z" fill="#6A6A6A"/>
<path d="M23.3327 22.1937L18.4193 17.2471L17.4727 18.1871L22.386 23.1337C22.4477 23.1959 22.5211 23.2453 22.6019 23.2791C22.6827 23.3129 22.7693 23.3305 22.8569 23.3308C22.9445 23.3311 23.0313 23.3141 23.1124 23.2809C23.1935 23.2477 23.2671 23.1988 23.3293 23.1371C23.3915 23.0753 23.4409 23.002 23.4747 22.9212C23.5085 22.8404 23.5261 22.7537 23.5263 22.6661C23.5267 22.5785 23.5097 22.4917 23.4765 22.4107C23.4433 22.3296 23.3943 22.2559 23.3327 22.1937Z" fill="#6A6A6A"/>
</g>
</g>
<defs>
<clipPath id="clip0_194_8913">
<rect width="24" height="24" fill="white"/>
</clipPath>
</defs>
</svg>
