<svg width="24" height="24" viewBox="0 0 24 24" fill="none" xmlns="http://www.w3.org/2000/svg">
<circle cx="12" cy="12" r="11.5" stroke="white"/>
<path d="M17.5239 7.39774L17.5362 7.39347L17.5484 7.38856C17.6208 7.35927 17.6768 7.35496 17.7117 7.35847C17.7456 7.36187 17.758 7.37186 17.7603 7.37387L17.7604 7.37393C17.7616 7.37493 17.7728 7.38408 17.7804 7.41968C17.7891 7.45985 17.7937 7.54005 17.7576 7.66941L17.755 7.6788L17.7528 7.68829L15.6842 16.4063L15.6838 16.4082C15.6582 16.5181 15.6267 16.579 15.6052 16.6093C15.5864 16.6357 15.5762 16.6383 15.5762 16.6383C15.5722 16.6399 15.4895 16.6673 15.2752 16.5669L12.1523 14.5041L11.8353 14.2947L11.5486 14.544L10.2987 15.6309L10.4284 13.8981L16.1051 9.31645C16.1904 9.24848 16.375 9.08239 16.3861 8.81699C16.4016 8.44909 16.1056 8.28675 15.9649 8.24355C15.8166 8.19801 15.6656 8.20639 15.5466 8.22843C15.4186 8.25216 15.2855 8.29938 15.1568 8.36942L15.1568 8.36937L15.1501 8.37315L8.11423 12.343L5.38854 11.5826L17.5239 7.39774ZM15.7399 9.21025C15.7399 9.21032 15.7386 9.2105 15.7359 9.21056C15.7387 9.21021 15.74 9.21018 15.7399 9.21025ZM15.4836 8.53301C15.4836 8.53299 15.4833 8.53328 15.4826 8.53387L15.4836 8.53301Z" fill="white" stroke="white"/>
</svg>
