<svg width="18" height="18" viewBox="0 0 18 18" fill="none" xmlns="http://www.w3.org/2000/svg">
<g clip-path="url(#clip0_189_4171)">
<path d="M17.8417 16.2642C16.4602 13.9007 14.2915 12.2423 11.7715 11.539C12.9967 10.9223 13.9764 9.91519 14.5527 8.67991C15.1289 7.44457 15.2682 6.05308 14.9481 4.7298C14.6278 3.40653 13.8668 2.22859 12.7877 1.38592C11.7086 0.543244 10.3742 0.0849609 8.99984 0.0849609C7.62546 0.0849609 6.29114 0.543244 5.21201 1.38592C4.13289 2.22859 3.37187 3.40653 3.05166 4.7298C2.73146 6.05308 2.87072 7.44457 3.44701 8.67991C4.0233 9.91519 5.00302 10.9223 6.22819 11.539C3.70819 12.2415 1.53946 13.8999 0.158002 16.2642C0.12007 16.3233 0.0945987 16.3893 0.0831228 16.4584C0.0716471 16.5274 0.0744032 16.5981 0.091225 16.6661C0.108048 16.7341 0.138588 16.798 0.18101 16.8541C0.223432 16.9101 0.276858 16.957 0.338075 16.992C0.399292 17.027 0.467034 17.0494 0.537226 17.0579C0.607418 17.0664 0.678609 17.0607 0.746517 17.0411C0.814425 17.0217 0.877649 16.9887 0.932375 16.9444C0.987109 16.9001 1.03221 16.8453 1.06499 16.7832C2.74353 13.912 5.70916 12.1982 8.99984 12.1982C12.2905 12.1982 15.2562 13.912 16.9347 16.7832C16.9675 16.8453 17.0126 16.9001 17.0673 16.9444C17.122 16.9887 17.1853 17.0217 17.2532 17.0411C17.3211 17.0607 17.3923 17.0664 17.4625 17.0579C17.5326 17.0494 17.6004 17.027 17.6616 16.992C17.7229 16.957 17.7762 16.9101 17.8187 16.8541C17.8611 16.798 17.8917 16.7341 17.9084 16.6661C17.9253 16.5981 17.928 16.5274 17.9166 16.4584C17.9051 16.3893 17.8796 16.3233 17.8417 16.2642ZM3.93188 6.14247C3.93188 5.15008 4.22912 4.17998 4.78599 3.35484C5.34286 2.5297 6.13437 1.88659 7.06042 1.50681C7.98647 1.12704 9.00544 1.02768 9.98853 1.22129C10.9716 1.41489 11.8747 1.89277 12.5834 2.59449C13.2922 3.29622 13.7749 4.19027 13.9705 5.16359C14.166 6.1369 14.0656 7.14577 13.682 8.06261C13.2984 8.97949 12.6489 9.7631 11.8154 10.3144C10.982 10.8658 10.0022 11.1601 8.99984 11.1601C7.65624 11.1584 6.36812 10.6293 5.41804 9.6887C4.46797 8.74808 3.93351 7.47273 3.93188 6.14247Z" fill="#333333" stroke="#333333" stroke-width="0.4"/>
</g>
<defs>
<clipPath id="clip0_189_4171">
<rect width="18" height="17.129" fill="white"/>
</clipPath>
</defs>
</svg>
