<svg width="40" height="40" viewBox="0 0 40 40" fill="none" xmlns="http://www.w3.org/2000/svg">
<circle cx="20" cy="20" r="19.5" fill="white" stroke="#E2E2E2"/>
<g clip-path="url(#clip0_177_2044)">
<path d="M20 18.5459V21.6441H24.3054C24.1164 22.6404 23.549 23.4841 22.6981 24.0514L25.2945 26.0659C26.8072 24.6696 27.68 22.6187 27.68 20.1823C27.68 19.6151 27.6291 19.0696 27.5345 18.546L20 18.5459Z" fill="#4285F4"/>
<path d="M15.5162 21.5225L14.9307 21.9707L12.8579 23.5852C14.1743 26.1961 16.8723 27.9998 19.9995 27.9998C22.1594 27.9998 23.9703 27.287 25.294 26.0653L22.6976 24.0507C21.9849 24.5307 21.0758 24.8216 19.9995 24.8216C17.9195 24.8216 16.1523 23.418 15.5195 21.5271L15.5162 21.5225Z" fill="#34A853"/>
<path d="M12.8581 16.4141C12.3127 17.4904 12 18.7049 12 19.9995C12 21.294 12.3127 22.5086 12.8581 23.5849C12.8581 23.5921 15.52 21.5194 15.52 21.5194C15.36 21.0394 15.2654 20.5304 15.2654 19.9994C15.2654 19.4684 15.36 18.9593 15.52 18.4793L12.8581 16.4141Z" fill="#FBBC05"/>
<path d="M19.9997 15.1855C21.1779 15.1855 22.2251 15.5927 23.0615 16.3782L25.3524 14.0873C23.9633 12.7928 22.1597 12 19.9997 12C16.8724 12 14.1743 13.7964 12.8579 16.4146L15.5197 18.48C16.1524 16.5891 17.9197 15.1855 19.9997 15.1855Z" fill="#EA4335"/>
</g>
<defs>
<clipPath id="clip0_177_2044">
<rect width="16" height="16" fill="white" transform="translate(12 12)"/>
</clipPath>
</defs>
</svg>
