<svg width="191" height="36" viewBox="0 0 191 36" fill="none" xmlns="http://www.w3.org/2000/svg">
<line x1="53.5" y1="4" x2="53.5" y2="31" stroke="#333333"/>
<path d="M70.6112 10.8C74.0112 10.8 76.0712 12.56 76.0712 15.44C76.0712 18.32 74.0112 20.1 70.6112 20.1H67.9712V25H64.9312V10.8H70.6112ZM67.9712 17.54H70.4312C72.0312 17.54 72.9512 16.82 72.9512 15.44C72.9512 14.06 72.0312 13.36 70.4312 13.36H67.9712V17.54ZM84.5691 10.8C87.5091 10.8 89.6691 12.32 89.6691 15.06C89.6691 16.86 88.6291 18.08 87.0891 18.48C88.6091 18.66 89.3291 19.38 89.4491 20.92L89.8091 25H86.7491L86.4691 21.44C86.3691 20.2 85.7091 19.8 84.0491 19.8H81.3891V25H78.3491V10.8H84.5691ZM81.3891 17.26H84.1291C85.6891 17.26 86.5491 16.56 86.5491 15.32C86.5491 14.06 85.7091 13.36 84.1291 13.36H81.3891V17.26ZM96.8452 10.8H106.725V13.36H99.8852V16.62H106.485V19.14H99.8852V22.44H106.885V25H96.8452V10.8ZM118.107 10.8H121.587L116.767 17.86L121.627 25H118.127L115.007 20.14L111.867 25H108.367L113.227 17.86L108.407 10.8H111.907L115.027 15.56L118.107 10.8ZM129.01 10.8C132.41 10.8 134.47 12.56 134.47 15.44C134.47 18.32 132.41 20.1 129.01 20.1H126.37V25H123.33V10.8H129.01ZM126.37 17.54H128.83C130.43 17.54 131.35 16.82 131.35 15.44C131.35 14.06 130.43 13.36 128.83 13.36H126.37V17.54ZM142.968 10.8C145.908 10.8 148.068 12.32 148.068 15.06C148.068 16.86 147.028 18.08 145.488 18.48C147.008 18.66 147.728 19.38 147.848 20.92L148.208 25H145.148L144.868 21.44C144.768 20.2 144.108 19.8 142.448 19.8H139.788V25H136.748V10.8H142.968ZM139.788 17.26H142.528C144.088 17.26 144.948 16.56 144.948 15.32C144.948 14.06 144.108 13.36 142.528 13.36H139.788V17.26ZM150.439 10.8H160.319V13.36H153.479V16.62H160.079V19.14H153.479V22.44H160.479V25H150.439V10.8ZM165.48 20.18C165.74 21.7 166.82 22.7 168.6 22.7C169.96 22.7 170.88 22.16 170.86 21.12C170.84 20.08 169.96 19.48 167.74 18.94C164.66 18.2 162.68 16.96 162.68 14.68C162.68 12.1 164.84 10.48 168.08 10.48C171.24 10.48 173.4 12.42 173.74 15.28L170.7 15.44C170.54 13.94 169.5 13 168 13C166.68 13 165.74 13.68 165.8 14.72C165.84 15.92 167.24 16.32 168.76 16.7C171.94 17.4 173.96 18.76 173.96 21.02C173.96 23.72 171.58 25.24 168.52 25.24C165.06 25.24 162.62 23.32 162.42 20.32L165.48 20.18ZM179.055 20.18C179.315 21.7 180.395 22.7 182.175 22.7C183.535 22.7 184.455 22.16 184.435 21.12C184.415 20.08 183.535 19.48 181.315 18.94C178.235 18.2 176.255 16.96 176.255 14.68C176.255 12.1 178.415 10.48 181.655 10.48C184.815 10.48 186.975 12.42 187.315 15.28L184.275 15.44C184.115 13.94 183.075 13 181.575 13C180.255 13 179.315 13.68 179.375 14.72C179.415 15.92 180.815 16.32 182.335 16.7C185.515 17.4 187.535 18.76 187.535 21.02C187.535 23.72 185.155 25.24 182.095 25.24C178.635 25.24 176.195 23.32 175.995 20.32L179.055 20.18Z" fill="#333333"/>
<circle cx="13.5789" cy="21.8778" r="13.5789" fill="#49D46F"/>
<circle cx="29.4207" cy="21.8778" r="13.5789" fill="#2272D4"/>
<circle cx="21.8778" cy="13.5789" r="13.3289" fill="white" stroke="#626262" stroke-width="0.5"/>
</svg>
