<svg width="40" height="40" viewBox="0 0 40 40" fill="none" xmlns="http://www.w3.org/2000/svg">
<circle cx="20" cy="20" r="19.5" fill="white" stroke="#E2E2E2"/>
<path d="M28 19.8847C28 22.0043 27.6448 23.7236 27.2065 23.7236C26.7682 23.7236 26.4131 22.0047 26.4131 19.8847C26.4131 17.7647 26.7683 16.0459 27.2065 16.0459C27.6446 16.0459 28 17.7646 28 19.8847Z" fill="black"/>
<path d="M25.975 19.8848C25.975 22.251 24.9648 24.1699 23.7187 24.1699C22.4726 24.1699 21.4624 22.251 21.4624 19.8848C21.4624 17.5186 22.4724 15.5996 23.7185 15.5996C24.9646 15.5996 25.9748 17.518 25.9748 19.8848" fill="black"/>
<path d="M21.025 19.8848C21.025 22.3986 19.0046 24.4365 16.5126 24.4365C14.0205 24.4365 12 22.3982 12 19.8848C12 17.3715 14.0203 15.333 16.5126 15.333C19.0048 15.333 21.025 17.371 21.025 19.8848Z" fill="black"/>
</svg>
