<svg width="40" height="40" viewBox="0 0 40 40" fill="none" xmlns="http://www.w3.org/2000/svg">
<circle cx="20" cy="20" r="19.5" fill="white" stroke="#E2E2E2"/>
<rect x="11.3335" y="11.333" width="17.3333" height="17.3333" rx="8.66667" fill="#0077FF"/>
<path d="M20.4258 23.0335C17.1686 23.0335 15.3108 20.7562 15.2334 16.9668H16.865C16.9186 19.7481 18.1214 20.9262 19.0741 21.1691V16.9668H20.6104V19.3655C21.5512 19.2623 22.5397 18.1692 22.8732 16.9668H24.4095C24.2838 17.5904 24.0333 18.1808 23.6737 18.7012C23.3141 19.2216 22.853 19.6607 22.3194 19.991C22.915 20.2929 23.4412 20.7201 23.863 21.2446C24.2849 21.769 24.5929 22.3787 24.7667 23.0335H23.0756C22.9196 22.4648 22.6024 21.9557 22.1639 21.57C21.7253 21.1844 21.1849 20.9393 20.6104 20.8655V23.0335H20.4258Z" fill="white"/>
</svg>
